PathFileType	4	(X/Y/Z)	/tmp/tmpjnq7zxqp/Me/MarkerData/jogging02_segment_0.trc
DataRate	CameraRate	NumFrames	NumMarkers	Units	OrigDataRate	OrigDataStartFrame	OrigNumFrames
100.093	100.093	10	39	m	100.093	939	1074
Frame#	Time	C7			CLAV			LANK			LASI			LBHD			LELB			LFHD			LFIN			LFRM			LHEE			LKNE			LPSI			LSHO			LTHI			LTIB			LTOE			LUPA			LWRA			LWRB			RANK			RASI			RBAK			RBHD			RELB			RFHD			RFIN			RFRM			RHEE			RKNE			RPSI			RSHO			RTHI			RTIB			RTOE			RUPA			RWRA			RWRB			STRN			T10		
		X1	Y1	Z1	X2	Y2	Z2	X3	Y3	Z3	X4	Y4	Z4	X5	Y5	Z5	X6	Y6	Z6	X7	Y7	Z7	X8	Y8	Z8	X9	Y9	Z9	X10	Y10	Z10	X11	Y11	Z11	X12	Y12	Z12	X13	Y13	Z13	X14	Y14	Z14	X15	Y15	Z15	X16	Y16	Z16	X17	Y17	Z17	X18	Y18	Z18	X19	Y19	Z19	X20	Y20	Z20	X21	Y21	Z21	X22	Y22	Z22	X23	Y23	Z23	X24	Y24	Z24	X25	Y25	Z25	X26	Y26	Z26	X27	Y27	Z27	X28	Y28	Z28	X29	Y29	Z29	X30	Y30	Z30	X31	Y31	Z31	X32	Y32	Z32	X33	Y33	Z33	X34	Y34	Z34	X35	Y35	Z35	X36	Y36	Z36	X37	Y37	Z37	X38	Y38	Z38	X39	Y39	Z39

940	9.38126	-0.148648	1.47076	-0.0200478	-0.307527	1.39713	-0.0404929	0.19503	0.24174	0.110156	-0.253472	0.99341	0.145903	-0.263972	1.61756	0.0406184	-0.323127	1.1351	0.238782	-0.393054	1.59755	0.0542774	-0.494495	1.239	-0.00941238	-0.404407	1.12154	0.107183	0.253973	0.290665	0.0562797	-0.142385	0.464834	0.125694	-0.10972	1.03073	0.0329923	-0.234973	1.46023	0.141461	-0.196078	0.652805	0.152468	0.075675	0.336014	0.134416	0.148582	0.0784912	0.0471937	-0.298312	1.30615	0.227362	-0.405089	1.20085	0.0311678	-0.458591	1.15264	0.0388909	-0.345526	0.0976557	-0.126493	-0.228551	0.992069	-0.159666	-0.0738481	1.3442	-0.11384	-0.290191	1.60357	-0.106608	-0.0352389	1.17948	-0.300848	-0.40867	1.58062	-0.0729989	-0.325734	1.01014	-0.22944	-0.0801008	1.10441	-0.29024	-0.279001	0.0507638	-0.0654763	-0.345581	0.511012	-0.138938	-0.103344	1.02529	-0.0313627	-0.195344	1.44576	-0.196404	-0.272615	0.8273	-0.190974	-0.321925	0.382946	-0.168331	-0.505088	0.106518	-0.063504	-0.0840287	1.25752	-0.288802	-0.224998	1.06735	-0.210543	-0.218341	1.00637	-0.248494	-0.354973	1.24052	-0.0380799	-0.0993746	1.26107	0.0125347
941	9.39125	-0.1466	1.46309	-0.0237869	-0.305897	1.39102	-0.0430207	0.196309	0.248577	0.109179	-0.253027	0.987099	0.144155	-0.260731	1.61225	0.036238	-0.316128	1.12884	0.239445	-0.389833	1.59376	0.051495	-0.493478	1.21866	-0.0103371	-0.398277	1.1082	0.109091	0.252033	0.299633	0.053942	-0.150873	0.456375	0.125578	-0.108452	1.02225	0.0315469	-0.233036	1.4541	0.139046	-0.20232	0.645166	0.151118	0.072762	0.336908	0.133588	0.155851	0.0830825	0.0483623	-0.294277	1.30039	0.226539	-0.402288	1.18483	0.0304554	-0.454043	1.13525	0.0403919	-0.331779	0.0943616	-0.125566	-0.226456	0.985587	-0.162129	-0.0722432	1.33531	-0.117007	-0.28879	1.59677	-0.110271	-0.0409613	1.16708	-0.30429	-0.406993	1.5755	-0.0754819	-0.335433	1.00814	-0.22802	-0.0878362	1.09361	-0.291761	-0.263136	0.0524359	-0.0646588	-0.345358	0.505959	-0.140385	-0.101701	1.01658	-0.0321688	-0.194062	1.43815	-0.199406	-0.272703	0.822515	-0.191443	-0.317667	0.376412	-0.168577	-0.492835	0.0919442	-0.0623495	-0.0886148	1.2453	-0.292259	-0.232797	1.0624	-0.210768	-0.228362	1.00063	-0.247812	-0.353683	1.23361	-0.0400401	-0.0979135	1.2541	0.00961845
942	9.40124	-0.144821	1.45465	-0.0275317	-0.304388	1.38354	-0.0451031	0.196026	0.255366	0.108191	-0.252347	0.979797	0.142653	-0.257702	1.60645	0.0319676	-0.30853	1.12173	0.240404	-0.386978	1.5895	0.0489864	-0.49219	1.19639	-0.0101244	-0.39109	1.09366	0.111556	0.24912	0.307734	0.051413	-0.159912	0.447562	0.125435	-0.106537	1.01302	0.0300559	-0.231405	1.44715	0.136738	-0.208598	0.636776	0.149936	0.0686736	0.337526	0.132632	0.160209	0.0880503	0.0499368	-0.289807	1.29372	0.225808	-0.399228	1.16718	0.030515	-0.448943	1.11618	0.0427913	-0.318231	0.0925059	-0.124421	-0.223407	0.979463	-0.164599	-0.0706944	1.32549	-0.12015	-0.287512	1.58949	-0.113934	-0.0476345	1.15363	-0.30753	-0.405524	1.56998	-0.0777935	-0.345892	1.00633	-0.226157	-0.0964702	1.08205	-0.293281	-0.246945	0.0544429	-0.0641946	-0.346101	0.500406	-0.142345	-0.0996122	1.0074	-0.0333321	-0.193192	1.42975	-0.202476	-0.272811	0.817288	-0.190996	-0.31438	0.37052	-0.169111	-0.480291	0.0787024	-0.0615708	-0.0939092	1.23223	-0.295615	-0.241343	1.05724	-0.210749	-0.239323	0.994812	-0.246989	-0.352183	1.22622	-0.0414314	-0.0959622	1.24553	0.0064962
943	9.41123	-0.143	1.44618	-0.0309647	-0.303064	1.37467	-0.0467182	0.193726	0.261985	0.107175	-0.251455	0.971733	0.141728	-0.255036	1.60068	0.0278318	-0.300311	1.11395	0.241613	-0.384479	1.58512	0.0465992	-0.490548	1.17232	-0.00869314	-0.383235	1.07807	0.114719	0.244591	0.315153	0.0489345	-0.169503	0.438736	0.124894	-0.103854	1.00304	0.0285183	-0.230023	1.43995	0.134714	-0.21481	0.627691	0.148942	0.0632666	0.33805	0.131481	0.161954	0.0930241	0.0518954	-0.284893	1.28615	0.225203	-0.395882	1.14804	0.0313799	-0.443257	1.09565	0.0461138	-0.303138	0.0918816	-0.123426	-0.220327	0.973154	-0.167061	-0.0693268	1.31488	-0.12333	-0.28662	1.58233	-0.117558	-0.0551401	1.13932	-0.310627	-0.404497	1.56443	-0.0798805	-0.357012	1.00486	-0.223862	-0.10605	1.07	-0.294883	-0.229421	0.05618	-0.0639182	-0.349804	0.49517	-0.144954	-0.0966043	0.997732	-0.0348755	-0.192546	1.42083	-0.205891	-0.272973	0.812301	-0.191325	-0.314377	0.367159	-0.170319	-0.466019	0.0694034	-0.060526	-0.0996898	1.21846	-0.298764	-0.250254	1.05194	-0.210213	-0.251145	0.98928	-0.245887	-0.350535	1.21829	-0.0422891	-0.0933391	1.2354	0.00325473
944	9.42122	-0.140825	1.43863	-0.0337854	-0.301902	1.36461	-0.0478595	0.189006	0.268247	0.106129	-0.249983	0.963073	0.141326	-0.252813	1.59533	0.0237862	-0.291449	1.10581	0.242935	-0.382265	1.58083	0.0441951	-0.488558	1.14657	-0.00591622	-0.375127	1.06163	0.118714	0.237987	0.321998	0.0467239	-0.179921	0.430289	0.123969	-0.100455	0.992129	0.0270638	-0.22861	1.43304	0.133109	-0.221082	0.618261	0.148098	0.0562028	0.338477	0.130554	0.160907	0.0979686	0.0536815	-0.279646	1.27801	0.224793	-0.392107	1.12754	0.033025	-0.436939	1.07391	0.050426	-0.285844	0.0922843	-0.12259	-0.216622	0.966897	-0.169198	-0.0682998	1.30375	-0.126618	-0.286277	1.57569	-0.121029	-0.0632066	1.12442	-0.31387	-0.403862	1.55902	-0.0817881	-0.368765	1.00411	-0.221055	-0.116623	1.05765	-0.296298	-0.210732	0.0574264	-0.0637237	-0.356112	0.491979	-0.147316	-0.0925325	0.987166	-0.0363695	-0.191884	1.41169	-0.209636	-0.27264	0.808666	-0.193477	-0.317756	0.366113	-0.171631	-0.448259	0.0656636	-0.0594354	-0.105865	1.20409	-0.301634	-0.259874	1.04704	-0.209356	-0.263903	0.984154	-0.244242	-0.348716	1.20957	-0.0427244	-0.0899324	1.22379	3.11826e-05
945	9.43121	-0.138779	1.43188	-0.0362751	-0.301008	1.35408	-0.0484976	0.181979	0.274034	0.105229	-0.247355	0.954099	0.14113	-0.250977	1.59024	0.0199081	-0.281963	1.09751	0.244218	-0.38009	1.5764	0.0417515	-0.486053	1.11929	-0.00156432	-0.366139	1.04475	0.123415	0.229489	0.328136	0.0448494	-0.191571	0.422715	0.123073	-0.0966048	0.980127	0.0263752	-0.226907	1.42613	0.131843	-0.227845	0.609744	0.147428	0.0471006	0.338728	0.129588	0.157438	0.102491	0.0552469	-0.273995	1.26993	0.224381	-0.387723	1.10593	0.0354228	-0.42984	1.05128	0.0558275	-0.267595	0.0929811	-0.121902	-0.21235	0.961622	-0.170749	-0.0676106	1.29256	-0.130215	-0.286233	1.56944	-0.124259	-0.0722271	1.10909	-0.316964	-0.403298	1.55363	-0.0836712	-0.381003	1.00434	-0.217723	-0.128099	1.04518	-0.297001	-0.191929	0.0582407	-0.0637069	-0.362576	0.491146	-0.149103	-0.0878276	0.975726	-0.0367232	-0.190955	1.40252	-0.213508	-0.27169	0.805724	-0.196677	-0.321388	0.365023	-0.172519	-0.428923	0.0643034	-0.0594526	-0.112477	1.18931	-0.30416	-0.270107	1.04267	-0.208055	-0.277377	0.979625	-0.24185	-0.346726	1.19996	-0.0428647	-0.0860024	1.21083	-0.00318868
946	9.4412	-0.137595	1.4256	-0.0389478	-0.300571	1.34471	-0.0487049	0.173046	0.27894	0.104103	-0.243682	0.945239	0.141346	-0.249331	1.58501	0.0163211	-0.271907	1.08933	0.245467	-0.378158	1.57174	0.0394729	-0.482587	1.09079	0.00460825	-0.356091	1.02783	0.128855	0.219702	0.333303	0.0431882	-0.204541	0.416373	0.122416	-0.0925135	0.967592	0.0274364	-0.224847	1.41906	0.130865	-0.235342	0.603815	0.146878	0.0361898	0.338905	0.128526	0.151549	0.106447	0.056486	-0.267996	1.26258	0.22386	-0.382501	1.08364	0.0387144	-0.42166	1.02806	0.062411	-0.249638	0.0933843	-0.121395	-0.208457	0.95642	-0.171712	-0.0671249	1.2819	-0.134317	-0.286136	1.56313	-0.127277	-0.0824941	1.09365	-0.319595	-0.402709	1.54804	-0.0854487	-0.393565	1.00577	-0.213849	-0.140669	1.03317	-0.297365	-0.173266	0.05881	-0.0639465	-0.366736	0.490164	-0.151103	-0.0829923	0.964694	-0.0349496	-0.189606	1.39348	-0.217284	-0.269613	0.801935	-0.20001	-0.322166	0.362648	-0.173294	-0.410986	0.0628131	-0.0593807	-0.119669	1.17454	-0.306262	-0.280824	1.03907	-0.206317	-0.291478	0.975901	-0.238716	-0.344573	1.1895	-0.0429145	-0.0821236	1.19709	-0.00659155
947	9.45119	-0.137333	1.42002	-0.041902	-0.300444	1.33765	-0.0490265	0.162582	0.283086	0.103143	-0.239227	0.936986	0.141802	-0.247736	1.57946	0.0130546	-0.261352	1.08164	0.246741	-0.376282	1.56683	0.0374025	-0.477894	1.06153	0.0126328	-0.345049	1.01118	0.135067	0.209007	0.337208	0.041635	-0.218414	0.411191	0.121937	-0.087839	0.956381	0.0301316	-0.222802	1.4121	0.129879	-0.243054	0.5999	0.146318	0.0241099	0.339019	0.127647	0.143042	0.109843	0.0572794	-0.261798	1.25603	0.223233	-0.376304	1.06106	0.0431468	-0.412006	1.00473	0.0702109	-0.231322	0.0938012	-0.121082	-0.205566	0.951003	-0.172434	-0.0669466	1.27215	-0.138782	-0.285899	1.55663	-0.130057	-0.0939724	1.07867	-0.321738	-0.402195	1.54231	-0.0869838	-0.406156	1.00864	-0.209385	-0.154333	1.02207	-0.297418	-0.154087	0.0594186	-0.0639966	-0.367413	0.485985	-0.154089	-0.0783172	0.955165	-0.0321548	-0.188035	1.38478	-0.220885	-0.266455	0.796918	-0.202972	-0.318617	0.358998	-0.174598	-0.392488	0.0615127	-0.0592877	-0.12789	1.16078	-0.307891	-0.291873	1.03658	-0.204079	-0.305926	0.973518	-0.234875	-0.342116	1.17886	-0.0426303	-0.0788051	1.18444	-0.0103823
948	9.46118	-0.137519	1.41529	-0.0448501	-0.299794	1.33173	-0.049961	0.150785	0.286517	0.102528	-0.234503	0.929702	0.142268	-0.246151	1.57379	0.0100685	-0.250285	1.07497	0.248089	-0.3745	1.56183	0.0354969	-0.471479	1.03242	0.0224857	-0.332978	0.995156	0.141989	0.197519	0.339989	0.0403947	-0.232704	0.406743	0.121507	-0.0828401	0.947633	0.0325876	-0.221288	1.40565	0.128406	-0.250528	0.596001	0.145922	0.0111131	0.339087	0.126757	0.132021	0.11254	0.0580444	-0.255412	1.25001	0.222623	-0.369046	1.03881	0.0488412	-0.400887	0.981823	0.0792443	-0.212583	0.0941051	-0.120972	-0.203963	0.945349	-0.173159	-0.0672517	1.26374	-0.143195	-0.285641	1.55022	-0.132601	-0.106546	1.06483	-0.323401	-0.401695	1.5367	-0.088413	-0.418761	1.01328	-0.204281	-0.168982	1.01242	-0.296803	-0.134667	0.0601242	-0.0638261	-0.364456	0.478398	-0.158017	-0.0749472	0.947025	-0.0310639	-0.186482	1.37653	-0.224059	-0.262996	0.790907	-0.2052	-0.311474	0.354305	-0.176468	-0.373377	0.0605873	-0.0592643	-0.136854	1.14871	-0.309166	-0.30305	1.03547	-0.201294	-0.32074	0.972754	-0.230521	-0.339353	1.16891	-0.042072	-0.0760157	1.17551	-0.0143779
949	9.47117	-0.137638	1.41093	-0.0474473	-0.298292	1.32566	-0.0515445	0.13785	0.288977	0.10193	-0.230071	0.923665	0.142244	-0.244623	1.56829	0.00735367	-0.23872	1.06957	0.249649	-0.372827	1.55703	0.0339504	-0.463302	1.00444	0.0339347	-0.319781	0.980125	0.14948	0.185431	0.341541	0.0393308	-0.24717	0.402893	0.121011	-0.0782743	0.941314	0.0327319	-0.220172	1.39993	0.126332	-0.25827	0.591897	0.145901	-0.00262813	0.338982	0.126012	0.118547	0.114604	0.0590652	-0.248749	1.24436	0.222088	-0.360612	1.01752	0.0557008	-0.388303	0.959998	0.0893447	-0.193624	0.0943059	-0.121031	-0.203605	0.939601	-0.174043	-0.0677991	1.25746	-0.147293	-0.285414	1.5442	-0.134911	-0.119955	1.0527	-0.324553	-0.401173	1.53141	-0.0896688	-0.43102	1.0199	-0.198578	-0.184391	1.00454	-0.29558	-0.115319	0.0605266	-0.0637885	-0.358071	0.469655	-0.162126	-0.0726682	0.940696	-0.0323025	-0.185763	1.36916	-0.226785	-0.259739	0.784529	-0.206701	-0.30164	0.348819	-0.178316	-0.354021	0.0599625	-0.0593801	-0.146196	1.1382	-0.310218	-0.314207	1.03609	-0.198107	-0.33586	0.973902	-0.225787	-0.336369	1.16057	-0.0414559	-0.0733714	1.17136	-0.0181233
